HIERARCHY
ROOT Hips
{
	OFFSET -3.958830 18.904000 13.208200
	CHANNELS 6 Xposition Yposition Zposition Zrotation Yrotation Xrotation 
	JOINT LHipJoint
	{
		OFFSET 0.000000 0.000000 0.000000
		CHANNELS 3 Zrotation Yrotation Xrotation
		JOINT LeftUpLeg
		{
			OFFSET 1.800000 -1.400000 0.085000
			CHANNELS 3 Zrotation Yrotation Xrotation
			JOINT LeftLeg
			{
				OFFSET 2.215000 -6.000000 0.000000
				CHANNELS 3 Zrotation Yrotation Xrotation
				JOINT LeftFoot
				{
					OFFSET 2.500000 -6.900000 0.000000
					CHANNELS 3 Zrotation Yrotation Xrotation
					JOINT LeftToeBase
					{
						OFFSET 0.200000 -0.500000 1.950000
						CHANNELS 3 Zrotation Yrotation Xrotation
						End Site
						{
							OFFSET 0.000000 0.000000 0.000000
						}
					}
				}
			}
		}
	}
	JOINT RHipJoint
	{
		OFFSET 0.000000 0.000000 0.000000
		CHANNELS 3 Zrotation Yrotation Xrotation
		JOINT RightUpLeg
		{
			OFFSET -1.800000 -1.400000 0.085000
			CHANNELS 3 Zrotation Yrotation Xrotation
			JOINT RightLeg
			{
				OFFSET -2.215000 -6.000000 0.000000
				CHANNELS 3 Zrotation Yrotation Xrotation
				JOINT RightFoot
				{
					OFFSET -2.500000 -6.900000 0.000000
					CHANNELS 3 Zrotation Yrotation Xrotation
					JOINT RightToeBase
					{
						OFFSET -0.200000 -0.500000 1.950000
						CHANNELS 3 Zrotation Yrotation Xrotation
						End Site
						{
							OFFSET 0.000000 0.000000 0.000000
						}
					}
				}
			}
		}
	}
	JOINT LowerBack
	{
		OFFSET 0.000000 0.000000 0.000000
		CHANNELS 3 Zrotation Yrotation Xrotation
		JOINT Spine
		{
			OFFSET -0.087000 1.940000 -0.288900
			CHANNELS 3 Zrotation Yrotation Xrotation
			JOINT Spine1
			{
				OFFSET 0.000000 1.950000 0.060000
				CHANNELS 3 Zrotation Yrotation Xrotation
				JOINT Neck
				{
					OFFSET 0.000000 0.000000 0.000000
					CHANNELS 3 Zrotation Yrotation Xrotation
					JOINT Neck1
					{
						OFFSET 0.000000 1.600000 0.340000
						CHANNELS 3 Zrotation Yrotation Xrotation
						JOINT Head
						{
							OFFSET 0.000000 1.667000 -0.240000
							CHANNELS 3 Zrotation Yrotation Xrotation
							End Site
							{
								OFFSET 0.000000 0.000000 0.000000
							}
						}
					}
				}
				JOINT LeftShoulder
				{
					OFFSET 0.000000 0.000000 0.000000
					CHANNELS 3 Zrotation Yrotation Xrotation
					JOINT LeftArm
					{
						OFFSET 2.700000 1.550000 -0.730000
						CHANNELS 3 Zrotation Yrotation Xrotation
						JOINT LeftForeArm
						{
							OFFSET 5.450000 0.000000 0.000000
							CHANNELS 3 Zrotation Yrotation Xrotation
							JOINT LeftHand
							{
								OFFSET 3.450000 0.000000 0.000000
								CHANNELS 3 Zrotation Yrotation Xrotation
								JOINT LeftHandIndex1
								{
									OFFSET 0.750000 0.000000 0.000000
									CHANNELS 3 Zrotation Yrotation Xrotation
									End Site
									{
										OFFSET 0.000000 0.000000 0.000000
									}
								}
							}
						}
					}
				}
				JOINT RightShoulder
				{
					OFFSET 0.000000 0.000000 0.000000
					CHANNELS 3 Zrotation Yrotation Xrotation
					JOINT RightArm
					{
						OFFSET -2.700000 1.550000 -0.730000
						CHANNELS 3 Zrotation Yrotation Xrotation
						JOINT RightForeArm
						{
							OFFSET -5.450000 0.000000 0.000000
							CHANNELS 3 Zrotation Yrotation Xrotation
							JOINT RightHand
							{
								OFFSET -3.450000 0.000000 0.000000
								CHANNELS 3 Zrotation Yrotation Xrotation
								JOINT RightHandIndex1
								{
									OFFSET -0.750000 0.000000 0.000000
									CHANNELS 3 Zrotation Yrotation Xrotation
									End Site
									{
										OFFSET 0.000000 0.000000 0.000000
									}
								}
							}
						}
					}
				}
			}
		}
	}
}
MOTION
Frames: 4
Frame Time: 0.016667
0.007840 18.820180 -3.508140 -16.663516 13.785851 -22.449238 -15.267333 12.540124 1.523635 18.778152 -4.302703 -14.659952 8.975230 7.807635 55.567055 0.812928 9.496267 1.108999 0.366350 0.368280 0.228810 18.597961 -8.023144 6.173829 -5.573737 17.685027 -56.828115 10.677998 -29.907506 87.255622 -3.183880 -16.009880 -0.597557 0.248640 -0.023380 0.038810 -3.938313 -2.590687 -9.259121 9.578695 -5.086759 32.241487 -3.720924 -2.050799 6.970461 0.910001 1.873575 -6.576326 -1.266447 -3.517793 48.740511 6.754410 -2.629720 -7.845530 -27.227813 -9.142929 0.723961 -27.706068 -21.397837 1.685572 117.713983 -72.606074 -106.849780 -3.798683 2.318368 0.226060 -0.070450 0.129160 0.092790 26.097933 6.391875 3.849749 44.549767 2.647866 -13.003782 22.263862 69.388390 9.903391 2.151216 -1.782024 -0.014800 0.149450 -0.105000 -0.050620 
0.035800 18.723920 -3.552240 -18.591521 12.982914 -22.302776 -15.187564 12.403636 1.184544 20.709102 -3.869245 -12.464939 8.807174 7.529458 51.338053 0.633833 8.870795 1.299725 0.360900 0.349780 0.263300 18.718934 -7.835677 6.619943 -8.672942 18.593162 -63.126240 14.406447 -34.613862 88.395968 -3.473278 -17.090929 -0.824888 0.243900 -0.044180 0.044240 -4.195971 -2.270183 -9.321761 12.458423 -5.831048 32.113032 -5.593401 -1.985423 6.828069 1.954283 3.107932 -6.583089 1.470921 -4.658641 48.069620 5.660600 -1.909930 -8.034080 -28.403047 -9.640440 0.560692 -27.954672 -22.357216 2.410901 113.676304 -72.862461 -101.509588 -3.808602 1.908693 0.241630 -0.063960 0.136090 0.070120 25.120427 5.494245 4.144200 45.985213 0.689206 -13.121304 24.531171 67.659307 10.814473 2.157076 -1.772966 -0.027210 0.140340 -0.102500 -0.080820 
0.062000 18.582910 -3.622530 -19.924472 11.670676 -22.373457 -15.134408 12.314234 0.939054 22.600419 -3.644989 -9.893312 8.224608 7.607108 47.828405 0.538401 8.405119 1.443953 0.384690 0.379010 0.290950 18.794499 -7.606163 7.032526 -13.209429 18.322284 -68.966874 20.955881 -40.690045 86.845112 -3.772567 -17.994470 -0.984840 0.248380 -0.079520 0.045400 -4.338024 -2.161604 -9.408285 14.474246 -6.499334 32.994870 -6.797914 -1.806246 6.388388 2.536479 3.330117 -6.852823 1.960905 -4.909888 48.362485 5.831160 -1.710060 -8.900810 -30.017031 -10.913654 0.881485 -28.396715 -22.448044 2.362052 111.307837 -73.386156 -98.981691 -3.776352 1.631362 0.264730 -0.089090 0.169320 0.067690 25.414711 6.429966 4.631869 45.443528 -0.959234 -13.339411 22.622983 61.396795 8.682769 2.165221 -1.704259 -0.013160 0.133860 -0.120130 -0.088070 
0.112020 18.414710 -3.684530 -21.418600 10.297904 -22.003565 -15.072230 12.131666 0.733421 25.535126 -3.319361 -5.799926 5.732562 8.443355 41.544522 0.428209 7.805502 1.657074 0.375510 0.365360 0.293120 18.901102 -7.306043 7.489849 -19.168152 16.599272 -75.065429 31.711977 -46.333774 79.721231 -3.837372 -17.906088 -0.931077 0.231960 -0.090500 0.048760 -4.524601 -2.000752 -9.515272 17.137652 -7.262896 32.794246 -8.040083 -1.482023 5.719415 3.213268 3.123010 -6.873903 1.850824 -4.439338 49.098856 5.026710 -1.375000 -8.102610 -32.220735 -12.095189 0.534383 -29.856357 -21.945518 0.195227 95.362433 -77.917976 -79.838780 -3.287433 -0.437140 0.260760 -0.088460 0.172800 0.064790 26.077529 7.393152 5.209846 43.730442 -2.344979 -12.685740 18.001874 53.232670 5.571293 2.184673 -1.619588 -0.005670 0.117770 -0.123220 -0.090200 
